<svg width="32" height="32" viewBox="0 0 32 32" fill="none" xmlns="http://www.w3.org/2000/svg">
<path d="M20.6839 8.50009C23.3177 7.94509 29 8.62071 29 14.6169V26H25.1845V22.1131H14.2853V26H10.4698V19.0594C10.0161 18.6894 9.23475 21.6394 7.7456 22.3906C6.86615 22.8344 6.1102 23.1231 5.29315 22.9463C3.5232 22.5631 2.6769 21.4469 3.11305 18.7819C3.93075 19.7069 6.38255 20.7144 6.65555 18.7819V10.7307C6.9279 9.06446 8.50805 5.78885 12.6505 6.01073H17.1154C19.0225 6.0001 21.8565 8.50946 21.2026 11.8407C20.9998 12.8751 20.225 14.9407 17.493 15.1719C16.403 15.2651 14.6005 14.8394 13.5105 12.3963" stroke="black" stroke-width="2" stroke-linecap="round" stroke-linejoin="round"/>
<path d="M10.0001 14C10.7364 14 11.3334 13.4031 11.3334 12.6667C11.3334 11.9303 10.7364 11.3334 10.0001 11.3334C9.26367 11.3334 8.66672 11.9303 8.66672 12.6667C8.66672 13.4031 9.26367 14 10.0001 14Z" fill="black"/>
</svg>
