<svg width="24" height="24" viewBox="0 0 24 24" fill="none" xmlns="http://www.w3.org/2000/svg">
<mask id="mask0_188_1123" style="mask-type:luminance" maskUnits="userSpaceOnUse" x="1" y="1" width="22" height="22">
<path d="M22.5 1.5H1.5V22.5H22.5V1.5Z" fill="white"/>
</mask>
<g mask="url(#mask0_188_1123)">
<path d="M2.42783 6.14969C2.25159 7.46056 2.25 9.18292 2.25 11.58V12.42C2.25 14.8171 2.25159 16.5394 2.42783 17.8503C2.60118 19.1396 2.931 19.918 3.50651 20.4935C4.08203 21.069 4.86039 21.3988 6.14969 21.5722C7.46056 21.7484 9.18292 21.75 11.58 21.75H12.42C14.8171 21.75 16.5394 21.7484 17.8503 21.5722C19.1396 21.3988 19.918 21.069 20.4935 20.4935C21.069 19.918 21.3988 19.1396 21.5722 17.8503C21.7484 16.5394 21.75 14.8171 21.75 12.42V11.58C21.75 9.18292 21.7484 7.46056 21.5722 6.14969C21.3988 4.86039 21.069 4.08203 20.4935 3.50651M2.42783 6.14969L20.4935 3.50651M2.42783 6.14969C2.60118 4.86039 2.931 4.08203 3.50651 3.50651L2.42783 6.14969ZM20.4935 3.50651C19.918 2.931 19.1396 2.60118 17.8503 2.42783C16.5394 2.25159 14.8171 2.25 12.42 2.25H11.58C9.18292 2.25 7.46056 2.25159 6.14969 2.42783C4.86039 2.60118 4.08203 2.931 3.50651 3.50651L20.4935 3.50651Z" stroke="#232323" stroke-width="1.5"/>
<path d="M12.6739 16.6287C7.88768 16.6287 5.1577 13.3475 5.04395 7.88745H7.44145C7.5202 11.8949 9.28767 13.5924 10.6877 13.9424V7.88745H12.9452V11.3437C14.3277 11.1949 15.78 9.61995 16.2701 7.88745H18.5276C18.1514 10.0225 16.5764 11.5974 15.4564 12.2449C16.5764 12.7699 18.3702 14.1437 19.0527 16.6287H16.5676C16.0339 14.9662 14.704 13.6799 12.9452 13.5049V16.6287H12.6739Z" fill="#232323"/>
</g>
</svg>
